<svg xmlns="http://www.w3.org/2000/svg" viewBox="0 0 512 512">
  <defs>
    <radialGradient id="bg" cx="50%" cy="35%" r="80%">
      <stop offset="0%" stop-color="#1f5136"/>
      <stop offset="100%" stop-color="#071912"/>
    </radialGradient>
    <linearGradient id="heart" x1="0%" y1="0%" x2="0%" y2="100%">
      <stop offset="0%" stop-color="#fb7185"/>
      <stop offset="100%" stop-color="#be123c"/>
    </linearGradient>
  </defs>
  <rect width="512" height="512" rx="96" fill="url(#bg)"/>
  <path
    d="M256 420 C 150 340, 88 280, 88 200 C 88 140, 132 104, 180 104 C 216 104, 244 124, 256 152 C 268 124, 296 104, 332 104 C 380 104, 424 140, 424 200 C 424 280, 362 340, 256 420 Z"
    fill="url(#heart)"/>
  <path
    d="M256 420 C 150 340, 88 280, 88 200 C 88 140, 132 104, 180 104 C 216 104, 244 124, 256 152 C 268 124, 296 104, 332 104 C 380 104, 424 140, 424 200 C 424 280, 362 340, 256 420 Z"
    fill="none" stroke="#fecdd3" stroke-opacity="0.35" stroke-width="10"/>
  <text x="256" y="272" font-family="Georgia, serif" font-size="130" font-weight="bold"
        text-anchor="middle" fill="#fff5f5">HB</text>
</svg>
